<!DOCTYPE svg PUBLIC "-//W3C//DTD SVG 20010904//EN" "http://www.w3.org/TR/2001/REC-SVG-20010904/DTD/svg10.dtd">
<svg version="1.0" xmlns="http://www.w3.org/2000/svg" width="300px" height="300px" viewBox="0 0 3000 3000" preserveAspectRatio="xMidYMid meet">
<g id="layer101" fill="#003990" stroke="none">
 <path d="M0 1500 l0 -1500 1500 0 1500 0 0 1500 0 1500 -1500 0 -1500 0 0 -1500z"/>
 </g>
<g id="layer102" fill="#e10200" stroke="none">
 <path d="M0 1500 l0 -1500 1500 0 1500 0 0 1500 0 1500 -558 0 c-433 0 -561 -3 -571 -12 -11 -10 -13 -10 -7 0 6 9 -183 12 -928 12 l-936 0 0 -1500z m1847 1368 c-2 -18 -4 -6 -4 27 0 33 2 48 4 33 2 -15 2 -42 0 -60z m-1429 -65 l-68 -4 -2 -297 -3 -297 -2 290 c-2 159 -1 295 2 302 3 9 25 12 72 11 l68 -2 -67 -3z m280 0 c-21 -2 -55 -2 -75 0 -21 2 -4 4 37 4 41 0 58 -2 38 -4z m275 0 c-34 -2 -93 -2 -130 0 -37 2 -9 3 62 3 72 0 102 -1 68 -3z m295 0 c-21 -2 -55 -2 -75 0 -21 2 -4 4 37 4 41 0 58 -2 38 -4z m242 0 c-43 -3 -78 -9 -82 -16 -5 -8 -8 -8 -8 -1 0 21 14 24 89 22 l76 -2 -75 -3z m-933 -20 c-4 -3 -7 0 -7 7 0 7 3 10 7 7 3 -4 3 -10 0 -14z m490 10 c-4 -3 -10 -3 -14 0 -3 4 0 7 7 7 7 0 10 -3 7 -7z m790 -30 c-3 -10 -5 -4 -5 12 0 17 2 24 5 18 2 -7 2 -21 0 -30z m-1366 -127 c0 -81 -2 -150 -5 -153 -3 -4 -6 65 -6 152 0 87 2 156 5 154 2 -3 5 -71 6 -153z m246 -283 c-1 -82 -3 -15 -3 147 0 162 2 229 3 148 2 -82 2 -214 0 -295z m30 0 c-1 -82 -3 -15 -3 147 0 162 2 229 3 148 2 -82 2 -214 0 -295z m328 427 c3 -5 4 -10 1 -10 -3 0 -8 5 -11 10 -3 6 -4 10 -1 10 3 0 8 -4 11 -10z m222 -22 c-3 -7 -5 -2 -5 12 0 14 2 19 5 13 2 -7 2 -19 0 -25z m-160 0 c-3 -8 -6 -5 -6 6 -1 11 2 17 5 13 3 -3 4 -12 1 -19z m-590 -5 c-4 -3 -7 0 -7 7 0 7 3 10 7 7 3 -4 3 -10 0 -14z m1020 0 c-4 -3 -7 0 -7 7 0 7 3 10 7 7 3 -4 3 -10 0 -14z m-170 -40 c-3 -10 -5 -4 -5 12 0 17 2 24 5 18 2 -7 2 -21 0 -30z m-860 10 c-4 -3 -7 0 -7 7 0 7 3 10 7 7 3 -4 3 -10 0 -14z m609 -29 c-4 -14 -9 -24 -12 -21 -3 2 -2 17 2 31 3 15 9 25 11 22 3 -3 2 -17 -1 -32z m411 4 c-3 -7 -5 -2 -5 12 0 14 2 19 5 13 2 -7 2 -19 0 -25z m-204 -21 l42 -4 -47 -1 c-44 -2 -48 0 -47 21 1 16 3 17 6 5 3 -12 17 -18 46 -21z m-826 6 c-4 -3 -7 0 -7 7 0 7 3 10 7 7 3 -4 3 -10 0 -14z m457 -1 c2 -4 -11 -6 -30 -4 l-34 4 0 -66 c0 -62 1 -66 23 -66 13 0 29 6 37 13 12 10 12 9 1 -5 -7 -10 -26 -18 -42 -18 l-29 0 0 75 0 75 34 0 c19 0 37 -4 40 -8z m563 -34 c-3 -7 -5 -2 -5 12 0 14 2 19 5 13 2 -7 2 -19 0 -25z m-1030 5 c-4 -3 -7 0 -7 7 0 7 3 10 7 7 3 -4 3 -10 0 -14z m640 0 c-4 -3 -7 0 -7 7 0 7 3 10 7 7 3 -4 3 -10 0 -14z m-160 -50 c-3 -10 -5 -2 -5 17 0 19 2 27 5 18 2 -10 2 -26 0 -35z m830 30 c-4 -3 -7 0 -7 7 0 7 3 10 7 7 3 -4 3 -10 0 -14z m-660 -25 c-3 -8 -6 -5 -6 6 -1 11 2 17 5 13 3 -3 4 -12 1 -19z m370 -10 c-3 -8 -6 -5 -6 6 -1 11 2 17 5 13 3 -3 4 -12 1 -19z m280 5 c-4 -3 -7 0 -7 7 0 7 3 10 7 7 3 -4 3 -10 0 -14z m-1320 -20 c-4 -3 -7 0 -7 7 0 7 3 10 7 7 3 -4 3 -10 0 -14z m640 -25 c-3 -8 -6 -5 -6 6 -1 11 2 17 5 13 3 -3 4 -12 1 -19z m40 -10 c-3 -7 -5 -2 -5 12 0 14 2 19 5 13 2 -7 2 -19 0 -25z m-690 0 c-3 -8 -6 -5 -6 6 -1 11 2 17 5 13 3 -3 4 -12 1 -19z m892 5 c0 -11 -3 -13 -6 -5 -7 18 -41 15 -46 -5 -4 -14 -5 -12 -6 5 -1 18 4 22 29 22 22 0 30 -5 29 -17z m148 0 c-4 -3 -7 0 -7 7 0 7 3 10 7 7 3 -4 3 -10 0 -14z m263 -3 c-6 -11 -13 -20 -16 -20 -2 0 0 9 6 20 6 11 13 20 16 20 2 0 0 -9 -6 -20z m-660 -14 c0 -3 -5 -8 -12 -12 -7 -4 -8 -3 -4 4 7 12 16 16 16 8z m387 -38 c-3 -7 -5 -2 -5 12 0 14 2 19 5 13 2 -7 2 -19 0 -25z m-330 0 c-3 -8 -6 -5 -6 6 -1 11 2 17 5 13 3 -3 4 -12 1 -19z m571 -3 c-6 -14 -13 -23 -15 -21 -5 5 15 46 22 46 3 0 -1 -11 -7 -25z m-391 -7 c-3 -8 -6 -5 -6 6 -1 11 2 17 5 13 3 -3 4 -12 1 -19z m-30 -25 c-3 -10 -5 -4 -5 12 0 17 2 24 5 18 2 -7 2 -21 0 -30z m-262 17 c3 -6 -1 -7 -9 -4 -18 7 -21 14 -7 14 6 0 13 -4 16 -10z m-508 -17 c-4 -3 -7 0 -7 7 0 7 3 10 7 7 3 -4 3 -10 0 -14z m630 -10 c-4 -3 -7 0 -7 7 0 7 3 10 7 7 3 -4 3 -10 0 -14z m310 -5 c-3 -8 -6 -5 -6 6 -1 11 2 17 5 13 3 -3 4 -12 1 -19z m-950 -15 c-4 -3 -7 0 -7 7 0 7 3 10 7 7 3 -4 3 -10 0 -14z m386 -116 c18 -4 17 -5 -5 -6 l-28 -1 2 68 2 67 3 -62 c3 -54 7 -62 26 -66z m408 66 c-9 -16 -10 -16 -11 4 0 12 3 30 7 40 7 16 8 16 11 -4 2 -12 -1 -30 -7 -40z m-144 15 c-3 -7 -5 -2 -5 12 0 14 2 19 5 13 2 -7 2 -19 0 -25z m290 5 c-4 -3 -7 0 -7 7 0 7 3 10 7 7 3 -4 3 -10 0 -14z m250 0 c-4 -3 -7 0 -7 7 0 7 3 10 7 7 3 -4 3 -10 0 -14z m-1200 -10 c-4 -3 -7 0 -7 7 0 7 3 10 7 7 3 -4 3 -10 0 -14z m440 -35 c-2 -13 -4 -5 -4 17 -1 22 1 32 4 23 2 -10 2 -28 0 -40z m140 -35 c-2 -16 -4 -3 -4 27 0 30 2 43 4 28 2 -16 2 -40 0 -55z m-590 40 c-4 -3 -7 0 -7 7 0 7 3 10 7 7 3 -4 3 -10 0 -14z m950 -5 c-3 -8 -6 -5 -6 6 -1 11 2 17 5 13 3 -3 4 -12 1 -19z m-270 -10 c-3 -8 -6 -5 -6 6 -1 11 2 17 5 13 3 -3 4 -12 1 -19z m-690 -15 c-4 -3 -7 0 -7 7 0 7 3 10 7 7 3 -4 3 -10 0 -14z m1163 3 c0 -3 -5 -8 -12 -12 -7 -4 -8 -3 -4 4 7 12 16 16 16 8z m-213 -38 c-3 -7 -5 -2 -5 12 0 14 2 19 5 13 2 -7 2 -19 0 -25z m-960 5 c-4 -3 -7 0 -7 7 0 7 3 10 7 7 3 -4 3 -10 0 -14z m710 -5 c-3 -8 -6 -5 -6 6 -1 11 2 17 5 13 3 -3 4 -12 1 -19z m433 18 c0 -3 -5 -8 -12 -12 -7 -4 -8 -3 -4 4 7 12 16 16 16 8z m-30 -20 c0 -3 -5 -8 -12 -12 -7 -4 -8 -3 -4 4 7 12 16 16 16 8z m-393 -48 c-3 -7 -5 -2 -5 12 0 14 2 19 5 13 2 -7 2 -19 0 -25z m230 5 c-4 -3 -7 0 -7 7 0 7 3 10 7 7 3 -4 3 -10 0 -14z m123 13 c0 -3 -5 -8 -12 -12 -7 -4 -8 -3 -4 4 7 12 16 16 16 8z m-1093 -28 c-3 -8 -6 -5 -6 6 -1 11 2 17 5 13 3 -3 4 -12 1 -19z m613 19 c0 -2 -10 -12 -22 -23 l-23 -19 19 23 c18 21 26 27 26 19z m440 -20 c0 -2 -12 -14 -27 -28 l-28 -24 24 28 c23 25 31 32 31 24z m-493 -24 c-4 -3 -10 -3 -14 0 -3 4 0 7 7 7 7 0 10 -3 7 -7z m-30 -10 c-4 -3 -10 -3 -14 0 -3 4 0 7 7 7 7 0 10 -3 7 -7z m433 -46 c0 -2 -15 -16 -32 -33 l-33 -29 29 33 c28 30 36 37 36 29z m-80 -71 c0 -3 -5 -8 -12 -12 -7 -4 -8 -3 -4 4 7 12 16 16 16 8z m-20 -29 c0 -2 -15 -16 -32 -33 l-33 -29 29 33 c28 30 36 37 36 29z m-60 -71 c0 -2 -8 -10 -17 -17 -16 -13 -17 -12 -4 4 13 16 21 21 21 13z m-30 -40 c0 -2 -8 -10 -17 -17 -16 -13 -17 -12 -4 4 13 16 21 21 21 13z m-30 -40 c0 -2 -8 -10 -17 -17 -16 -13 -17 -12 -4 4 13 16 21 21 21 13z m-30 -40 c0 -2 -8 -10 -17 -17 -16 -13 -17 -12 -4 4 13 16 21 21 21 13z m-39 -53 c-5 -10 -17 -27 -26 -38 -16 -19 -17 -19 -3 5 26 46 29 50 34 50 3 0 0 -8 -5 -17z m-41 -67 c0 -3 -5 -8 -12 -12 -7 -4 -8 -3 -4 4 7 12 16 16 16 8z m-47 -33 c-7 -2 -19 -2 -25 0 -7 3 -2 5 12 5 14 0 19 -2 13 -5z m-46 -30 c-4 -3 -7 0 -7 7 0 7 3 10 7 7 3 -4 3 -10 0 -14z m-67 -137 c0 -3 -5 -8 -12 -12 -7 -4 -8 -3 -4 4 7 12 16 16 16 8z m-43 -83 c-4 -3 -7 0 -7 7 0 7 3 10 7 7 3 -4 3 -10 0 -14z m-20 -55 c-3 -8 -6 -5 -6 6 -1 11 2 17 5 13 3 -3 4 -12 1 -19z m-10 -60 c-3 -8 -6 -5 -6 6 -1 11 2 17 5 13 3 -3 4 -12 1 -19z m10 -70 c-3 -7 -5 -2 -5 12 0 14 2 19 5 13 2 -7 2 -19 0 -25z m10 -45 c-4 -3 -7 0 -7 7 0 7 3 10 7 7 3 -4 3 -10 0 -14z m63 -100 c0 -9 -12 -12 -37 -11 -37 1 -37 1 -5 5 38 5 39 9 10 42 l-23 26 28 -24 c15 -14 27 -30 27 -38z m-143 -125 c-3 -8 -6 -5 -6 6 -1 11 2 17 5 13 3 -3 4 -12 1 -19z"/>
 </g>
<g id="layer103" fill="#005098" stroke="none">
 <path d="M0 1500 l0 -1500 1500 0 1500 0 0 1500 0 1500 -517 0 -516 0 19 -22 19 -23 -26 23 c-28 25 -86 30 -108 10 -11 -10 -13 -10 -7 0 6 9 -183 12 -928 12 l-936 0 0 -1500z m1847 1368 c-2 -18 -4 -6 -4 27 0 33 2 48 4 33 2 -15 2 -42 0 -60z m170 0 c-2 -13 -4 -3 -4 22 0 25 2 35 4 23 2 -13 2 -33 0 -45z m-10 -50 c-3 -8 -6 -5 -6 6 -1 11 2 17 5 13 3 -3 4 -12 1 -19z m-1589 -15 l-68 -4 -2 -297 -3 -297 -2 290 c-2 159 -1 295 2 302 3 9 25 12 72 11 l68 -2 -67 -3z m280 0 c-21 -2 -55 -2 -75 0 -21 2 -4 4 37 4 41 0 58 -2 38 -4z m275 0 c-34 -2 -93 -2 -130 0 -37 2 -9 3 62 3 72 0 102 -1 68 -3z m295 0 c-21 -2 -55 -2 -75 0 -21 2 -4 4 37 4 41 0 58 -2 38 -4z m242 0 c-43 -3 -78 -9 -82 -16 -5 -8 -8 -8 -8 -1 0 21 14 24 89 22 l76 -2 -75 -3z m-933 -20 c-4 -3 -7 0 -7 7 0 7 3 10 7 7 3 -4 3 -10 0 -14z m490 10 c-4 -3 -10 -3 -14 0 -3 4 0 7 7 7 7 0 10 -3 7 -7z m790 -30 c-3 -10 -5 -4 -5 12 0 17 2 24 5 18 2 -7 2 -21 0 -30z m134 10 c-12 -20 -14 -14 -5 12 4 9 9 14 11 11 3 -2 0 -13 -6 -23z m-1500 -137 c0 -81 -2 -150 -5 -153 -3 -4 -6 65 -6 152 0 87 2 156 5 154 2 -3 5 -71 6 -153z m246 -283 c-1 -82 -3 -15 -3 147 0 162 2 229 3 148 2 -82 2 -214 0 -295z m30 0 c-1 -82 -3 -15 -3 147 0 162 2 229 3 148 2 -82 2 -214 0 -295z m328 427 c3 -5 4 -10 1 -10 -3 0 -8 5 -11 10 -3 6 -4 10 -1 10 3 0 8 -4 11 -10z m222 -22 c-3 -7 -5 -2 -5 12 0 14 2 19 5 13 2 -7 2 -19 0 -25z m-160 0 c-3 -8 -6 -5 -6 6 -1 11 2 17 5 13 3 -3 4 -12 1 -19z m-590 -5 c-4 -3 -7 0 -7 7 0 7 3 10 7 7 3 -4 3 -10 0 -14z m1020 0 c-4 -3 -7 0 -7 7 0 7 3 10 7 7 3 -4 3 -10 0 -14z m-170 -40 c-3 -10 -5 -4 -5 12 0 17 2 24 5 18 2 -7 2 -21 0 -30z m560 -10 c-3 -10 -5 -2 -5 17 0 19 2 27 5 18 2 -10 2 -26 0 -35z m-1420 20 c-4 -3 -7 0 -7 7 0 7 3 10 7 7 3 -4 3 -10 0 -14z m609 -29 c-4 -14 -9 -24 -12 -21 -3 2 -2 17 2 31 3 15 9 25 11 22 3 -3 2 -17 -1 -32z m411 4 c-3 -7 -5 -2 -5 12 0 14 2 19 5 13 2 -7 2 -19 0 -25z m-204 -21 l42 -4 -47 -1 c-44 -2 -48 0 -47 21 1 16 3 17 6 5 3 -12 17 -18 46 -21z m-826 6 c-4 -3 -7 0 -7 7 0 7 3 10 7 7 3 -4 3 -10 0 -14z m457 -1 c2 -4 -11 -6 -30 -4 l-34 4 0 -66 c0 -62 1 -66 23 -66 13 0 29 6 37 13 12 10 12 9 1 -5 -7 -10 -26 -18 -42 -18 l-29 0 0 75 0 75 34 0 c19 0 37 -4 40 -8z m563 -34 c-3 -7 -5 -2 -5 12 0 14 2 19 5 13 2 -7 2 -19 0 -25z m400 15 c-4 -3 -7 0 -7 7 0 7 3 10 7 7 3 -4 3 -10 0 -14z m-1430 -10 c-4 -3 -7 0 -7 7 0 7 3 10 7 7 3 -4 3 -10 0 -14z m640 0 c-4 -3 -7 0 -7 7 0 7 3 10 7 7 3 -4 3 -10 0 -14z m-160 -50 c-3 -10 -5 -2 -5 17 0 19 2 27 5 18 2 -10 2 -26 0 -35z m830 30 c-4 -3 -7 0 -7 7 0 7 3 10 7 7 3 -4 3 -10 0 -14z m110 -5 c-3 -8 -6 -5 -6 6 -1 11 2 17 5 13 3 -3 4 -12 1 -19z m-770 -20 c-3 -8 -6 -5 -6 6 -1 11 2 17 5 13 3 -3 4 -12 1 -19z m370 -10 c-3 -8 -6 -5 -6 6 -1 11 2 17 5 13 3 -3 4 -12 1 -19z m280 5 c-4 -3 -7 0 -7 7 0 7 3 10 7 7 3 -4 3 -10 0 -14z m-1320 -20 c-4 -3 -7 0 -7 7 0 7 3 10 7 7 3 -4 3 -10 0 -14z m1430 -50 c-2 -16 -4 -5 -4 22 0 28 2 40 4 28 2 -13 2 -35 0 -50z m-790 25 c-3 -8 -6 -5 -6 6 -1 11 2 17 5 13 3 -3 4 -12 1 -19z m40 -10 c-3 -7 -5 -2 -5 12 0 14 2 19 5 13 2 -7 2 -19 0 -25z m-690 0 c-3 -8 -6 -5 -6 6 -1 11 2 17 5 13 3 -3 4 -12 1 -19z m892 5 c0 -11 -3 -13 -6 -5 -7 18 -41 15 -46 -5 -4 -14 -5 -12 -6 5 -1 18 4 22 29 22 22 0 30 -5 29 -17z m148 0 c-4 -3 -7 0 -7 7 0 7 3 10 7 7 3 -4 3 -10 0 -14z m263 -3 c-6 -11 -13 -20 -16 -20 -2 0 0 9 6 20 6 11 13 20 16 20 2 0 0 -9 -6 -20z m-660 -14 c0 -3 -5 -8 -12 -12 -7 -4 -8 -3 -4 4 7 12 16 16 16 8z m387 -38 c-3 -7 -5 -2 -5 12 0 14 2 19 5 13 2 -7 2 -19 0 -25z m-330 0 c-3 -8 -6 -5 -6 6 -1 11 2 17 5 13 3 -3 4 -12 1 -19z m571 -3 c-6 -14 -13 -23 -15 -21 -5 5 15 46 22 46 3 0 -1 -11 -7 -25z m-391 -7 c-3 -8 -6 -5 -6 6 -1 11 2 17 5 13 3 -3 4 -12 1 -19z m-30 -25 c-3 -10 -5 -4 -5 12 0 17 2 24 5 18 2 -7 2 -21 0 -30z m600 20 c-4 -3 -7 0 -7 7 0 7 3 10 7 7 3 -4 3 -10 0 -14z m-862 -3 c3 -6 -1 -7 -9 -4 -18 7 -21 14 -7 14 6 0 13 -4 16 -10z m-508 -17 c-4 -3 -7 0 -7 7 0 7 3 10 7 7 3 -4 3 -10 0 -14z m630 -10 c-4 -3 -7 0 -7 7 0 7 3 10 7 7 3 -4 3 -10 0 -14z m310 -5 c-3 -8 -6 -5 -6 6 -1 11 2 17 5 13 3 -3 4 -12 1 -19z m440 -35 c-3 -10 -5 -2 -5 17 0 19 2 27 5 18 2 -10 2 -26 0 -35z m-1390 20 c-4 -3 -7 0 -7 7 0 7 3 10 7 7 3 -4 3 -10 0 -14z m386 -116 c18 -4 17 -5 -5 -6 l-28 -1 2 68 2 67 3 -62 c3 -54 7 -62 26 -66z m408 66 c-9 -16 -10 -16 -11 4 0 12 3 30 7 40 7 16 8 16 11 -4 2 -12 -1 -30 -7 -40z m-144 15 c-3 -7 -5 -2 -5 12 0 14 2 19 5 13 2 -7 2 -19 0 -25z m290 5 c-4 -3 -7 0 -7 7 0 7 3 10 7 7 3 -4 3 -10 0 -14z m250 0 c-4 -3 -7 0 -7 7 0 7 3 10 7 7 3 -4 3 -10 0 -14z m-1200 -10 c-4 -3 -7 0 -7 7 0 7 3 10 7 7 3 -4 3 -10 0 -14z m440 -35 c-2 -13 -4 -5 -4 17 -1 22 1 32 4 23 2 -10 2 -28 0 -40z m140 -35 c-2 -16 -4 -3 -4 27 0 30 2 43 4 28 2 -16 2 -40 0 -55z m803 47 c-6 -11 -13 -20 -16 -20 -2 0 0 9 6 20 6 11 13 20 16 20 2 0 0 -9 -6 -20z m-1393 -7 c-4 -3 -7 0 -7 7 0 7 3 10 7 7 3 -4 3 -10 0 -14z m950 -5 c-3 -8 -6 -5 -6 6 -1 11 2 17 5 13 3 -3 4 -12 1 -19z m-270 -10 c-3 -8 -6 -5 -6 6 -1 11 2 17 5 13 3 -3 4 -12 1 -19z m-690 -15 c-4 -3 -7 0 -7 7 0 7 3 10 7 7 3 -4 3 -10 0 -14z m1163 3 c0 -3 -5 -8 -12 -12 -7 -4 -8 -3 -4 4 7 12 16 16 16 8z m208 -16 c-7 -10 -14 -17 -17 -15 -4 4 18 35 25 35 2 0 -1 -9 -8 -20z m-421 -22 c-3 -7 -5 -2 -5 12 0 14 2 19 5 13 2 -7 2 -19 0 -25z m-960 5 c-4 -3 -7 0 -7 7 0 7 3 10 7 7 3 -4 3 -10 0 -14z m710 -5 c-3 -8 -6 -5 -6 6 -1 11 2 17 5 13 3 -3 4 -12 1 -19z m433 18 c0 -3 -5 -8 -12 -12 -7 -4 -8 -3 -4 4 7 12 16 16 16 8z m-30 -20 c0 -3 -5 -8 -12 -12 -7 -4 -8 -3 -4 4 7 12 16 16 16 8z m247 -28 c-3 -8 -6 -5 -6 6 -1 11 2 17 5 13 3 -3 4 -12 1 -19z m-640 -20 c-3 -7 -5 -2 -5 12 0 14 2 19 5 13 2 -7 2 -19 0 -25z m230 5 c-4 -3 -7 0 -7 7 0 7 3 10 7 7 3 -4 3 -10 0 -14z m123 13 c0 -3 -5 -8 -12 -12 -7 -4 -8 -3 -4 4 7 12 16 16 16 8z m-1093 -28 c-3 -8 -6 -5 -6 6 -1 11 2 17 5 13 3 -3 4 -12 1 -19z m613 19 c0 -2 -10 -12 -22 -23 l-23 -19 19 23 c18 21 26 27 26 19z m440 -20 c0 -2 -12 -14 -27 -28 l-28 -24 24 28 c23 25 31 32 31 24z m317 -29 c-3 -8 -6 -5 -6 6 -1 11 2 17 5 13 3 -3 4 -12 1 -19z m-810 5 c-4 -3 -10 -3 -14 0 -3 4 0 7 7 7 7 0 10 -3 7 -7z m-30 -10 c-4 -3 -10 -3 -14 0 -3 4 0 7 7 7 7 0 10 -3 7 -7z m830 -50 c-3 -10 -5 -4 -5 12 0 17 2 24 5 18 2 -7 2 -21 0 -30z m-397 4 c0 -2 -15 -16 -32 -33 l-33 -29 29 33 c28 30 36 37 36 29z m387 -59 c-3 -8 -6 -5 -6 6 -1 11 2 17 5 13 3 -3 4 -12 1 -19z m-467 -12 c0 -3 -5 -8 -12 -12 -7 -4 -8 -3 -4 4 7 12 16 16 16 8z m457 -33 c-4 -3 -7 0 -7 7 0 7 3 10 7 7 3 -4 3 -10 0 -14z m-477 4 c0 -2 -15 -16 -32 -33 l-33 -29 29 33 c28 30 36 37 36 29z m460 -54 c-11 -17 -11 -17 -6 0 3 10 6 24 7 30 0 9 2 9 5 0 3 -7 0 -20 -6 -30z m-520 -17 c0 -2 -8 -10 -17 -17 -16 -13 -17 -12 -4 4 13 16 21 21 21 13z m510 -10 c0 -3 -5 -8 -12 -12 -7 -4 -8 -3 -4 4 7 12 16 16 16 8z m-540 -30 c0 -2 -8 -10 -17 -17 -16 -13 -17 -12 -4 4 13 16 21 21 21 13z m504 -26 c-10 -16 -20 -28 -22 -26 -4 5 28 56 35 56 2 0 -4 -13 -13 -30z m-534 -14 c0 -2 -8 -10 -17 -17 -16 -13 -17 -12 -4 4 13 16 21 21 21 13z m-30 -40 c0 -2 -8 -10 -17 -17 -16 -13 -17 -12 -4 4 13 16 21 21 21 13z m523 -26 c-3 -12 -8 -19 -11 -16 -5 6 5 36 12 36 2 0 2 -9 -1 -20z m-562 -27 c-5 -10 -17 -27 -26 -38 -16 -19 -17 -19 -3 5 26 46 29 50 34 50 3 0 0 -8 -5 -17z m546 -35 c-3 -7 -5 -2 -5 12 0 14 2 19 5 13 2 -7 2 -19 0 -25z m226 -5 c-7 -2 -19 -2 -25 0 -7 3 -2 5 12 5 14 0 19 -2 13 -5z m-60 -10 c-7 -2 -19 -2 -25 0 -7 3 -2 5 12 5 14 0 19 -2 13 -5z m114 1 c-3 -3 -12 -4 -19 -1 -8 3 -5 6 6 6 11 1 17 -2 13 -5z m52 -18 c15 -8 34 -23 42 -33 13 -17 13 -17 -6 -2 -11 9 -33 24 -50 32 -16 9 -26 16 -22 17 4 0 20 -6 36 -14z m-919 0 c0 -3 -5 -8 -12 -12 -7 -4 -8 -3 -4 4 7 12 16 16 16 8z m577 -53 c-3 -10 -5 -2 -5 17 0 19 2 27 5 18 2 -10 2 -26 0 -35z m93 43 c0 -3 -5 -8 -12 -12 -7 -4 -8 -3 -4 4 7 12 16 16 16 8z m-717 -23 c-7 -2 -19 -2 -25 0 -7 3 -2 5 12 5 14 0 19 -2 13 -5z m687 4 c0 -2 -12 -14 -27 -28 l-28 -24 24 28 c23 25 31 32 31 24z m-733 -34 c-4 -3 -7 0 -7 7 0 7 3 10 7 7 3 -4 3 -10 0 -14z m1104 -20 c13 -16 12 -17 -3 -4 -10 7 -18 15 -18 17 0 8 8 3 21 -13z m-441 -43 c-5 -10 -10 -47 -11 -82 -1 -51 -2 -58 -9 -35 -10 33 7 150 21 141 5 -3 5 -13 -1 -24z m457 3 c-4 -3 -7 0 -7 7 0 7 3 10 7 7 3 -4 3 -10 0 -14z m10 -35 c-3 -8 -6 -5 -6 6 -1 11 2 17 5 13 3 -3 4 -12 1 -19z m10 -65 c-3 -10 -5 -2 -5 17 0 19 2 27 5 18 2 -10 2 -26 0 -35z m-1207 23 c0 -3 -5 -8 -12 -12 -7 -4 -8 -3 -4 4 7 12 16 16 16 8z m697 -53 c-4 -3 -7 0 -7 7 0 7 3 10 7 7 3 -4 3 -10 0 -14z m500 -15 c-3 -8 -6 -5 -6 6 -1 11 2 17 5 13 3 -3 4 -12 1 -19z m-1240 -15 c-4 -3 -7 0 -7 7 0 7 3 10 7 7 3 -4 3 -10 0 -14z m730 -5 c-3 -8 -6 -5 -6 6 -1 11 2 17 5 13 3 -3 4 -12 1 -19z m494 -21 c-10 -9 -11 -8 -5 6 3 10 9 15 12 12 3 -3 0 -11 -7 -18z m-486 -7 c3 -5 4 -10 1 -10 -3 0 -8 5 -11 10 -3 6 -4 10 -1 10 3 0 8 -4 11 -10z m-758 -22 c-3 -8 -6 -5 -6 6 -1 11 2 17 5 13 3 -3 4 -12 1 -19z m1226 -3 c-3 -9 -8 -14 -10 -11 -3 3 -2 9 2 15 9 16 15 13 8 -4z m-476 -17 c-3 -8 -6 -5 -6 6 -1 11 2 17 5 13 3 -3 4 -12 1 -19z m93 -3 c13 -14 21 -25 18 -25 -2 0 -15 11 -28 25 -13 14 -21 25 -18 25 2 0 15 -11 28 -25z m-853 -37 c-3 -8 -6 -5 -6 6 -1 11 2 17 5 13 3 -3 4 -12 1 -19z m750 5 c-4 -3 -7 0 -7 7 0 7 3 10 7 7 3 -4 3 -10 0 -14z m453 13 c0 -2 -7 -7 -16 -10 -8 -3 -12 -2 -9 4 6 10 25 14 25 6z m-305 -16 c3 -5 4 -10 1 -10 -3 0 -8 5 -11 10 -3 6 -4 10 -1 10 3 0 8 -4 11 -10z m60 -31 c11 -16 1 -19 -13 -3 -7 8 -8 14 -3 14 5 0 13 -5 16 -11z m185 7 c0 -2 -7 -6 -15 -10 -8 -3 -15 -1 -15 4 0 6 7 10 15 10 8 0 15 -2 15 -4z m-1133 -48 c-3 -7 -5 -2 -5 12 0 14 2 19 5 13 2 -7 2 -19 0 -25z m720 10 c-3 -8 -6 -5 -6 6 -1 11 2 17 5 13 3 -3 4 -12 1 -19z m380 -30 c-3 -7 -5 -2 -5 12 0 14 2 19 5 13 2 -7 2 -19 0 -25z m-390 -5 c-4 -3 -7 0 -7 7 0 7 3 10 7 7 3 -4 3 -10 0 -14z m-700 -20 c-4 -3 -7 0 -7 7 0 7 3 10 7 7 3 -4 3 -10 0 -14z m690 -10 c-4 -3 -7 0 -7 7 0 7 3 10 7 7 3 -4 3 -10 0 -14z m390 -15 c-3 -7 -5 -2 -5 12 0 14 2 19 5 13 2 -7 2 -19 0 -25z m-1017 -75 c0 -9 -12 -12 -37 -11 -37 1 -37 1 -5 5 38 5 39 9 10 42 l-23 26 28 -24 c15 -14 27 -30 27 -38z m810 37 c-6 -11 -13 -20 -16 -20 -2 0 0 9 6 20 6 11 13 20 16 20 2 0 0 -9 -6 -20z m197 3 c-4 -3 -7 0 -7 7 0 7 3 10 7 7 3 -4 3 -10 0 -14z m-400 -10 c-4 -3 -7 0 -7 7 0 7 3 10 7 7 3 -4 3 -10 0 -14z m378 -42 c-21 -43 -29 -39 -8 4 9 19 18 33 21 31 2 -2 -4 -18 -13 -35z m-395 5 c0 -2 -8 -10 -17 -17 -16 -13 -17 -12 -4 4 13 16 21 21 21 13z m187 -28 c-3 -8 -6 -5 -6 6 -1 11 2 17 5 13 3 -3 4 -12 1 -19z m-10 -40 c-3 -8 -6 -5 -6 6 -1 11 2 17 5 13 3 -3 4 -12 1 -19z m-200 -15 c-4 -3 -7 0 -7 7 0 7 3 10 7 7 3 -4 3 -10 0 -14z m380 -5 c-3 -8 -6 -5 -6 6 -1 11 2 17 5 13 3 -3 4 -12 1 -19z m-190 -15 c-4 -3 -7 0 -7 7 0 7 3 10 7 7 3 -4 3 -10 0 -14z m-900 -15 c-3 -8 -6 -5 -6 6 -1 11 2 17 5 13 3 -3 4 -12 1 -19z m733 -13 c0 -5 -5 -3 -10 5 -5 8 -10 20 -10 25 0 6 5 3 10 -5 5 -8 10 -19 10 -25z m347 -7 c-3 -7 -5 -2 -5 12 0 14 2 19 5 13 2 -7 2 -19 0 -25z m-190 -20 c-3 -8 -6 -5 -6 6 -1 11 2 17 5 13 3 -3 4 -12 1 -19z m-140 -25 c-4 -3 -7 0 -7 7 0 7 3 10 7 7 3 -4 3 -10 0 -14z m320 -10 c-4 -3 -7 0 -7 7 0 7 3 10 7 7 3 -4 3 -10 0 -14z m-190 -25 c-3 -7 -5 -2 -5 12 0 14 2 19 5 13 2 -7 2 -19 0 -25z m180 -10 c-3 -8 -6 -5 -6 6 -1 11 2 17 5 13 3 -3 4 -12 1 -19z m-276 -5 c13 -16 12 -17 -3 -4 -17 13 -22 21 -14 21 2 0 10 -8 17 -17z m86 -20 c-4 -3 -7 0 -7 7 0 7 3 10 7 7 3 -4 3 -10 0 -14z m-52 -3 c3 -5 4 -10 1 -10 -3 0 -8 5 -11 10 -3 6 -4 10 -1 10 3 0 8 -4 11 -10z m232 -122 c-3 -7 -5 -2 -5 12 0 14 2 19 5 13 2 -7 2 -19 0 -25z m-57 -141 c0 -2 -10 -12 -22 -23 l-23 -19 19 23 c18 21 26 27 26 19z m-120 -91 c0 -3 -5 -8 -12 -12 -7 -4 -8 -3 -4 4 7 12 16 16 16 8z m47 -398 c-3 -7 -5 -2 -5 12 0 14 2 19 5 13 2 -7 2 -19 0 -25z"/>
 </g>
<g id="layer104" fill="#005ca7" stroke="none">
 <path d="M1865 2976 c-13 -20 -16 -50 -14 -153 2 -173 -2 -200 -50 -288 -30 -53 -40 -82 -35 -99 9 -37 -21 -82 -79 -119 -184 -119 -369 -309 -505 -519 -52 -81 -58 -88 -89 -88 -18 0 -33 -5 -33 -12 0 -6 -29 -69 -65 -140 -36 -71 -68 -148 -71 -171 -8 -63 20 -185 51 -217 37 -39 32 -49 -27 -52 -49 -3 -54 -5 -70 -38 -25 -51 -22 -86 17 -174 19 -44 33 -81 31 -83 -3 -3 -45 86 -65 140 -8 22 -15 26 -33 22 -25 -5 -49 -9 -145 -25 -34 -6 -75 -15 -90 -21 -16 -6 -29 -10 -31 -9 -9 5 -198 -45 -307 -82 -65 -22 -66 -22 -175 -66 l-75 -30 -3 -376 -2 -376 1500 0 1500 0 0 1500 0 1500 -517 0 -516 0 19 -22 19 -23 -26 23 c-36 31 -93 30 -114 -2z m152 -108 c-2 -13 -4 -3 -4 22 0 25 2 35 4 23 2 -13 2 -33 0 -45z m-10 -50 c-3 -8 -6 -5 -6 6 -1 11 2 17 5 13 3 -3 4 -12 1 -19z m-16 -45 c-12 -20 -14 -14 -5 12 4 9 9 14 11 11 3 -2 0 -13 -6 -23z m-14 -70 c-3 -10 -5 -2 -5 17 0 19 2 27 5 18 2 -10 2 -26 0 -35z m-10 -40 c-4 -3 -7 0 -7 7 0 7 3 10 7 7 3 -4 3 -10 0 -14z m-10 -35 c-3 -8 -6 -5 -6 6 -1 11 2 17 5 13 3 -3 4 -12 1 -19z m-10 -95 c-2 -16 -4 -5 -4 22 0 28 2 40 4 28 2 -13 2 -35 0 -50z m10 -50 c-4 -3 -7 0 -7 7 0 7 3 10 7 7 3 -4 3 -10 0 -14z m10 -70 c-3 -10 -5 -2 -5 17 0 19 2 27 5 18 2 -10 2 -26 0 -35z m-17 -43 c-6 -11 -13 -20 -16 -20 -2 0 0 9 6 20 6 11 13 20 16 20 2 0 0 -9 -6 -20z m-32 -50 c-7 -10 -14 -17 -17 -15 -4 4 18 35 25 35 2 0 -1 -9 -8 -20z m-21 -52 c-3 -8 -6 -5 -6 6 -1 11 2 17 5 13 3 -3 4 -12 1 -19z m-10 -60 c-3 -8 -6 -5 -6 6 -1 11 2 17 5 13 3 -3 4 -12 1 -19z m-10 -55 c-3 -10 -5 -4 -5 12 0 17 2 24 5 18 2 -7 2 -21 0 -30z m-10 -55 c-3 -8 -6 -5 -6 6 -1 11 2 17 5 13 3 -3 4 -12 1 -19z m-10 -45 c-4 -3 -7 0 -7 7 0 7 3 10 7 7 3 -4 3 -10 0 -14z m-17 -50 c-11 -17 -11 -17 -6 0 3 10 6 24 7 30 0 9 2 9 5 0 3 -7 0 -20 -6 -30z m-10 -27 c0 -3 -5 -8 -12 -12 -7 -4 -8 -3 -4 4 7 12 16 16 16 8z m-36 -56 c-10 -16 -20 -28 -22 -26 -4 5 28 56 35 56 2 0 -4 -13 -13 -30z m-41 -80 c-3 -12 -8 -19 -11 -16 -5 6 5 36 12 36 2 0 2 -9 -1 -20z m-16 -62 c-3 -7 -5 -2 -5 12 0 14 2 19 5 13 2 -7 2 -19 0 -25z m226 -5 c-7 -2 -19 -2 -25 0 -7 3 -2 5 12 5 14 0 19 -2 13 -5z m-60 -10 c-7 -2 -19 -2 -25 0 -7 3 -2 5 12 5 14 0 19 -2 13 -5z m114 1 c-3 -3 -12 -4 -19 -1 -8 3 -5 6 6 6 11 1 17 -2 13 -5z m52 -18 c15 -8 34 -23 42 -33 13 -17 13 -17 -6 -2 -11 9 -33 24 -50 32 -16 9 -26 16 -22 17 4 0 20 -6 36 -14z m-342 -53 c-3 -10 -5 -2 -5 17 0 19 2 27 5 18 2 -10 2 -26 0 -35z m93 43 c0 -3 -5 -8 -12 -12 -7 -4 -8 -3 -4 4 7 12 16 16 16 8z m-30 -19 c0 -2 -12 -14 -27 -28 l-28 -24 24 28 c23 25 31 32 31 24z m371 -54 c13 -16 12 -17 -3 -4 -10 7 -18 15 -18 17 0 8 8 3 21 -13z m-441 -43 c-5 -10 -10 -47 -11 -82 -1 -51 -2 -58 -9 -35 -10 33 7 150 21 141 5 -3 5 -13 -1 -24z m457 3 c-4 -3 -7 0 -7 7 0 7 3 10 7 7 3 -4 3 -10 0 -14z m10 -35 c-3 -8 -6 -5 -6 6 -1 11 2 17 5 13 3 -3 4 -12 1 -19z m10 -65 c-3 -10 -5 -2 -5 17 0 19 2 27 5 18 2 -10 2 -26 0 -35z m-510 -30 c-4 -3 -7 0 -7 7 0 7 3 10 7 7 3 -4 3 -10 0 -14z m500 -15 c-3 -8 -6 -5 -6 6 -1 11 2 17 5 13 3 -3 4 -12 1 -19z m-510 -20 c-3 -8 -6 -5 -6 6 -1 11 2 17 5 13 3 -3 4 -12 1 -19z m494 -21 c-10 -9 -11 -8 -5 6 3 10 9 15 12 12 3 -3 0 -11 -7 -18z m-486 -7 c3 -5 4 -10 1 -10 -3 0 -8 5 -11 10 -3 6 -4 10 -1 10 3 0 8 -4 11 -10z m468 -25 c-3 -9 -8 -14 -10 -11 -3 3 -2 9 2 15 9 16 15 13 8 -4z m-476 -17 c-3 -8 -6 -5 -6 6 -1 11 2 17 5 13 3 -3 4 -12 1 -19z m93 -3 c13 -14 21 -25 18 -25 -2 0 -15 11 -28 25 -13 14 -21 25 -18 25 2 0 15 -11 28 -25z m-103 -32 c-4 -3 -7 0 -7 7 0 7 3 10 7 7 3 -4 3 -10 0 -14z m453 13 c0 -2 -7 -7 -16 -10 -8 -3 -12 -2 -9 4 6 10 25 14 25 6z m-305 -16 c3 -5 4 -10 1 -10 -3 0 -8 5 -11 10 -3 6 -4 10 -1 10 3 0 8 -4 11 -10z m60 -31 c11 -16 1 -19 -13 -3 -7 8 -8 14 -3 14 5 0 13 -5 16 -11z m185 7 c0 -2 -7 -6 -15 -10 -8 -3 -15 -1 -15 4 0 6 7 10 15 10 8 0 15 -2 15 -4z m-413 -38 c-3 -8 -6 -5 -6 6 -1 11 2 17 5 13 3 -3 4 -12 1 -19z m380 -30 c-3 -7 -5 -2 -5 12 0 14 2 19 5 13 2 -7 2 -19 0 -25z m-390 -5 c-4 -3 -7 0 -7 7 0 7 3 10 7 7 3 -4 3 -10 0 -14z m-10 -30 c-4 -3 -7 0 -7 7 0 7 3 10 7 7 3 -4 3 -10 0 -14z m390 -15 c-3 -7 -5 -2 -5 12 0 14 2 19 5 13 2 -7 2 -19 0 -25z m-207 -38 c-6 -11 -13 -20 -16 -20 -2 0 0 9 6 20 6 11 13 20 16 20 2 0 0 -9 -6 -20z m197 3 c-4 -3 -7 0 -7 7 0 7 3 10 7 7 3 -4 3 -10 0 -14z m-400 -10 c-4 -3 -7 0 -7 7 0 7 3 10 7 7 3 -4 3 -10 0 -14z m378 -42 c-21 -43 -29 -39 -8 4 9 19 18 33 21 31 2 -2 -4 -18 -13 -35z m-395 5 c0 -2 -8 -10 -17 -17 -16 -13 -17 -12 -4 4 13 16 21 21 21 13z m187 -28 c-3 -8 -6 -5 -6 6 -1 11 2 17 5 13 3 -3 4 -12 1 -19z m-10 -40 c-3 -8 -6 -5 -6 6 -1 11 2 17 5 13 3 -3 4 -12 1 -19z m-200 -15 c-4 -3 -7 0 -7 7 0 7 3 10 7 7 3 -4 3 -10 0 -14z m380 -5 c-3 -8 -6 -5 -6 6 -1 11 2 17 5 13 3 -3 4 -12 1 -19z m-190 -15 c-4 -3 -7 0 -7 7 0 7 3 10 7 7 3 -4 3 -10 0 -14z m-167 -28 c0 -5 -5 -3 -10 5 -5 8 -10 20 -10 25 0 6 5 3 10 -5 5 -8 10 -19 10 -25z m347 -7 c-3 -7 -5 -2 -5 12 0 14 2 19 5 13 2 -7 2 -19 0 -25z m-190 -20 c-3 -8 -6 -5 -6 6 -1 11 2 17 5 13 3 -3 4 -12 1 -19z m-140 -25 c-4 -3 -7 0 -7 7 0 7 3 10 7 7 3 -4 3 -10 0 -14z m320 -10 c-4 -3 -7 0 -7 7 0 7 3 10 7 7 3 -4 3 -10 0 -14z m-190 -25 c-3 -7 -5 -2 -5 12 0 14 2 19 5 13 2 -7 2 -19 0 -25z m180 -10 c-3 -8 -6 -5 -6 6 -1 11 2 17 5 13 3 -3 4 -12 1 -19z m-276 -5 c13 -16 12 -17 -3 -4 -17 13 -22 21 -14 21 2 0 10 -8 17 -17z m86 -20 c-4 -3 -7 0 -7 7 0 7 3 10 7 7 3 -4 3 -10 0 -14z m-52 -3 c3 -5 4 -10 1 -10 -3 0 -8 5 -11 10 -3 6 -4 10 -1 10 3 0 8 -4 11 -10z m232 -122 c-3 -7 -5 -2 -5 12 0 14 2 19 5 13 2 -7 2 -19 0 -25z m-57 -141 c0 -2 -10 -12 -22 -23 l-23 -19 19 23 c18 21 26 27 26 19z m-120 -91 c0 -3 -5 -8 -12 -12 -7 -4 -8 -3 -4 4 7 12 16 16 16 8z m47 -398 c-3 -7 -5 -2 -5 12 0 14 2 19 5 13 2 -7 2 -19 0 -25z"/>
 <path d="M350 2500 l0 -300 74 0 74 0 22 73 c12 39 34 110 48 157 l27 85 3 -157 3 -158 64 0 65 0 0 300 0 300 -74 0 -73 0 -16 -52 c-9 -29 -32 -105 -51 -168 l-35 -115 -1 168 0 167 -65 0 -65 0 0 -300z"/>
 <path d="M772 2503 l3 -298 110 -3 c207 -4 260 30 253 162 -3 62 -7 71 -35 96 -30 27 -31 28 -10 34 42 11 62 54 62 131 0 86 -21 127 -80 155 -35 17 -62 20 -173 20 l-132 0 2 -297z m238 168 c29 -55 0 -131 -51 -131 l-29 0 0 75 0 75 35 0 c24 0 37 -6 45 -19z m-8 -254 c12 -19 9 -82 -4 -95 -7 -7 -25 -12 -40 -12 -28 0 -28 0 -28 66 l0 67 32 -7 c18 -3 36 -12 40 -19z"/>
 <path d="M1156 2783 c2 -10 26 -135 54 -278 29 -143 54 -270 57 -282 5 -22 10 -23 104 -23 54 0 99 2 99 4 0 5 108 545 115 574 5 21 3 22 -74 22 -86 0 -91 -4 -91 -72 0 -49 -9 -58 -55 -58 l-43 0 -7 65 -7 65 -78 0 c-69 0 -78 -2 -74 -17z m241 -245 c-3 -18 -9 -55 -12 -83 -12 -102 -18 -103 -31 -5 -7 52 -13 101 -13 108 -1 7 12 12 30 12 30 0 31 -2 26 -32z"/>
 </g>
<g id="layer105" fill="#0068b6" stroke="none">
 <path d="M1870 2978 c-22 -24 -25 -77 -11 -201 5 -51 4 -73 -6 -87 -8 -11 -11 -30 -8 -42 4 -15 -5 -42 -25 -78 -50 -89 -62 -122 -52 -132 7 -7 4 -24 -7 -49 -13 -28 -35 -50 -82 -80 -62 -40 -220 -171 -289 -241 -42 -41 -196 -246 -233 -310 -25 -43 -32 -48 -62 -48 -21 0 -35 -5 -35 -12 0 -7 -30 -73 -67 -146 -59 -117 -67 -139 -68 -190 0 -79 23 -167 52 -193 35 -34 30 -49 -18 -49 -57 0 -74 -13 -89 -64 -15 -55 -2 -100 75 -257 28 -58 55 -114 58 -125 4 -10 11 -30 17 -44 8 -21 8 -22 -2 -8 -7 9 -18 24 -23 33 -12 19 -7 20 -193 -19 -87 -19 -305 -89 -382 -124 -148 -66 -308 -164 -385 -234 l-35 -31 0 -124 0 -123 1500 0 1500 0 0 1500 0 1500 -517 0 -516 0 19 -22 19 -23 -26 23 c-33 29 -82 29 -109 0z m147 -110 c-2 -13 -4 -3 -4 22 0 25 2 35 4 23 2 -13 2 -33 0 -45z m-10 -50 c-3 -8 -6 -5 -6 6 -1 11 2 17 5 13 3 -3 4 -12 1 -19z m-16 -45 c-12 -20 -14 -14 -5 12 4 9 9 14 11 11 3 -2 0 -13 -6 -23z m-14 -70 c-3 -10 -5 -2 -5 17 0 19 2 27 5 18 2 -10 2 -26 0 -35z m-10 -40 c-4 -3 -7 0 -7 7 0 7 3 10 7 7 3 -4 3 -10 0 -14z m-10 -35 c-3 -8 -6 -5 -6 6 -1 11 2 17 5 13 3 -3 4 -12 1 -19z m-10 -95 c-2 -16 -4 -5 -4 22 0 28 2 40 4 28 2 -13 2 -35 0 -50z m10 -50 c-4 -3 -7 0 -7 7 0 7 3 10 7 7 3 -4 3 -10 0 -14z m10 -70 c-3 -10 -5 -2 -5 17 0 19 2 27 5 18 2 -10 2 -26 0 -35z m-17 -43 c-6 -11 -13 -20 -16 -20 -2 0 0 9 6 20 6 11 13 20 16 20 2 0 0 -9 -6 -20z m-32 -50 c-7 -10 -14 -17 -17 -15 -4 4 18 35 25 35 2 0 -1 -9 -8 -20z m-21 -52 c-3 -8 -6 -5 -6 6 -1 11 2 17 5 13 3 -3 4 -12 1 -19z m-10 -60 c-3 -8 -6 -5 -6 6 -1 11 2 17 5 13 3 -3 4 -12 1 -19z m-10 -55 c-3 -10 -5 -4 -5 12 0 17 2 24 5 18 2 -7 2 -21 0 -30z m-10 -55 c-3 -8 -6 -5 -6 6 -1 11 2 17 5 13 3 -3 4 -12 1 -19z m-10 -45 c-4 -3 -7 0 -7 7 0 7 3 10 7 7 3 -4 3 -10 0 -14z m-17 -50 c-11 -17 -11 -17 -6 0 3 10 6 24 7 30 0 9 2 9 5 0 3 -7 0 -20 -6 -30z m-10 -27 c0 -3 -5 -8 -12 -12 -7 -4 -8 -3 -4 4 7 12 16 16 16 8z m-36 -56 c-10 -16 -20 -28 -22 -26 -4 5 28 56 35 56 2 0 -4 -13 -13 -30z m-41 -80 c-3 -12 -8 -19 -11 -16 -5 6 5 36 12 36 2 0 2 -9 -1 -20z m-16 -62 c-3 -7 -5 -2 -5 12 0 14 2 19 5 13 2 -7 2 -19 0 -25z m226 -5 c-7 -2 -19 -2 -25 0 -7 3 -2 5 12 5 14 0 19 -2 13 -5z m-60 -10 c-7 -2 -19 -2 -25 0 -7 3 -2 5 12 5 14 0 19 -2 13 -5z m114 1 c-3 -3 -12 -4 -19 -1 -8 3 -5 6 6 6 11 1 17 -2 13 -5z m52 -18 c15 -8 34 -23 42 -33 13 -17 13 -17 -6 -2 -11 9 -33 24 -50 32 -16 9 -26 16 -22 17 4 0 20 -6 36 -14z m-342 -53 c-3 -10 -5 -2 -5 17 0 19 2 27 5 18 2 -10 2 -26 0 -35z m93 43 c0 -3 -5 -8 -12 -12 -7 -4 -8 -3 -4 4 7 12 16 16 16 8z m-30 -19 c0 -2 -12 -14 -27 -28 l-28 -24 24 28 c23 25 31 32 31 24z m371 -54 c13 -16 12 -17 -3 -4 -10 7 -18 15 -18 17 0 8 8 3 21 -13z m-441 -43 c-5 -10 -10 -47 -11 -82 -1 -51 -2 -58 -9 -35 -10 33 7 150 21 141 5 -3 5 -13 -1 -24z m457 3 c-4 -3 -7 0 -7 7 0 7 3 10 7 7 3 -4 3 -10 0 -14z m10 -35 c-3 -8 -6 -5 -6 6 -1 11 2 17 5 13 3 -3 4 -12 1 -19z m10 -65 c-3 -10 -5 -2 -5 17 0 19 2 27 5 18 2 -10 2 -26 0 -35z m-510 -30 c-4 -3 -7 0 -7 7 0 7 3 10 7 7 3 -4 3 -10 0 -14z m500 -15 c-3 -8 -6 -5 -6 6 -1 11 2 17 5 13 3 -3 4 -12 1 -19z m-510 -20 c-3 -8 -6 -5 -6 6 -1 11 2 17 5 13 3 -3 4 -12 1 -19z m494 -21 c-10 -9 -11 -8 -5 6 3 10 9 15 12 12 3 -3 0 -11 -7 -18z m-486 -7 c3 -5 4 -10 1 -10 -3 0 -8 5 -11 10 -3 6 -4 10 -1 10 3 0 8 -4 11 -10z m468 -25 c-3 -9 -8 -14 -10 -11 -3 3 -2 9 2 15 9 16 15 13 8 -4z m-476 -17 c-3 -8 -6 -5 -6 6 -1 11 2 17 5 13 3 -3 4 -12 1 -19z m93 -3 c13 -14 21 -25 18 -25 -2 0 -15 11 -28 25 -13 14 -21 25 -18 25 2 0 15 -11 28 -25z m-103 -32 c-4 -3 -7 0 -7 7 0 7 3 10 7 7 3 -4 3 -10 0 -14z m453 13 c0 -2 -7 -7 -16 -10 -8 -3 -12 -2 -9 4 6 10 25 14 25 6z m-305 -16 c3 -5 4 -10 1 -10 -3 0 -8 5 -11 10 -3 6 -4 10 -1 10 3 0 8 -4 11 -10z m60 -31 c11 -16 1 -19 -13 -3 -7 8 -8 14 -3 14 5 0 13 -5 16 -11z m185 7 c0 -2 -7 -6 -15 -10 -8 -3 -15 -1 -15 4 0 6 7 10 15 10 8 0 15 -2 15 -4z m-413 -38 c-3 -8 -6 -5 -6 6 -1 11 2 17 5 13 3 -3 4 -12 1 -19z m380 -30 c-3 -7 -5 -2 -5 12 0 14 2 19 5 13 2 -7 2 -19 0 -25z m-390 -5 c-4 -3 -7 0 -7 7 0 7 3 10 7 7 3 -4 3 -10 0 -14z m-10 -30 c-4 -3 -7 0 -7 7 0 7 3 10 7 7 3 -4 3 -10 0 -14z m390 -15 c-3 -7 -5 -2 -5 12 0 14 2 19 5 13 2 -7 2 -19 0 -25z m-207 -38 c-6 -11 -13 -20 -16 -20 -2 0 0 9 6 20 6 11 13 20 16 20 2 0 0 -9 -6 -20z m197 3 c-4 -3 -7 0 -7 7 0 7 3 10 7 7 3 -4 3 -10 0 -14z m-400 -10 c-4 -3 -7 0 -7 7 0 7 3 10 7 7 3 -4 3 -10 0 -14z m378 -42 c-21 -43 -29 -39 -8 4 9 19 18 33 21 31 2 -2 -4 -18 -13 -35z m-395 5 c0 -2 -8 -10 -17 -17 -16 -13 -17 -12 -4 4 13 16 21 21 21 13z m187 -28 c-3 -8 -6 -5 -6 6 -1 11 2 17 5 13 3 -3 4 -12 1 -19z m-10 -40 c-3 -8 -6 -5 -6 6 -1 11 2 17 5 13 3 -3 4 -12 1 -19z m-200 -15 c-4 -3 -7 0 -7 7 0 7 3 10 7 7 3 -4 3 -10 0 -14z m380 -5 c-3 -8 -6 -5 -6 6 -1 11 2 17 5 13 3 -3 4 -12 1 -19z m-190 -15 c-4 -3 -7 0 -7 7 0 7 3 10 7 7 3 -4 3 -10 0 -14z m-167 -28 c0 -5 -5 -3 -10 5 -5 8 -10 20 -10 25 0 6 5 3 10 -5 5 -8 10 -19 10 -25z m347 -7 c-3 -7 -5 -2 -5 12 0 14 2 19 5 13 2 -7 2 -19 0 -25z m-190 -20 c-3 -8 -6 -5 -6 6 -1 11 2 17 5 13 3 -3 4 -12 1 -19z m-140 -25 c-4 -3 -7 0 -7 7 0 7 3 10 7 7 3 -4 3 -10 0 -14z m320 -10 c-4 -3 -7 0 -7 7 0 7 3 10 7 7 3 -4 3 -10 0 -14z m-190 -25 c-3 -7 -5 -2 -5 12 0 14 2 19 5 13 2 -7 2 -19 0 -25z m180 -10 c-3 -8 -6 -5 -6 6 -1 11 2 17 5 13 3 -3 4 -12 1 -19z m-276 -5 c13 -16 12 -17 -3 -4 -17 13 -22 21 -14 21 2 0 10 -8 17 -17z m86 -20 c-4 -3 -7 0 -7 7 0 7 3 10 7 7 3 -4 3 -10 0 -14z m-52 -3 c3 -5 4 -10 1 -10 -3 0 -8 5 -11 10 -3 6 -4 10 -1 10 3 0 8 -4 11 -10z m232 -122 c-3 -7 -5 -2 -5 12 0 14 2 19 5 13 2 -7 2 -19 0 -25z m-57 -141 c0 -2 -10 -12 -22 -23 l-23 -19 19 23 c18 21 26 27 26 19z m-795 -37 c3 -5 4 -10 1 -10 -3 0 -8 5 -11 10 -3 6 -4 10 -1 10 3 0 8 -4 11 -10z m675 -54 c0 -3 -5 -8 -12 -12 -7 -4 -8 -3 -4 4 7 12 16 16 16 8z m47 -398 c-3 -7 -5 -2 -5 12 0 14 2 19 5 13 2 -7 2 -19 0 -25z"/>
 <path d="M352 2503 l3 -298 68 -3 68 -3 13 33 c8 18 31 91 52 162 l39 129 5 -159 5 -159 60 0 60 0 3 298 2 297 -73 0 -74 0 -51 -167 -51 -168 0 168 -1 167 -65 0 -65 0 2 -297z"/>
 <path d="M772 2503 l3 -298 135 1 c106 1 142 4 167 18 48 24 66 66 61 144 -4 57 -8 68 -34 92 -29 25 -30 27 -11 36 43 19 62 61 61 135 0 74 -14 103 -68 143 -24 19 -45 21 -172 24 l-144 3 2 -298z m238 168 c15 -30 12 -97 -6 -115 -8 -9 -29 -16 -45 -16 l-29 0 0 75 0 75 35 0 c24 0 37 -6 45 -19z m-19 -241 c14 -8 19 -21 19 -53 0 -50 -13 -67 -52 -67 -28 0 -28 0 -28 65 0 59 2 65 21 65 11 0 29 -5 40 -10z"/>
 <path d="M1160 2783 c0 -28 100 -535 110 -560 9 -21 16 -23 100 -23 85 0 91 1 99 23 5 12 32 141 61 286 29 146 54 271 57 278 4 10 -13 13 -75 13 l-79 0 -7 -31 c-3 -17 -6 -47 -6 -65 0 -34 0 -34 -49 -34 -48 0 -48 0 -55 38 -3 20 -6 49 -6 65 l0 27 -75 0 c-65 0 -75 -2 -75 -17z m240 -217 c0 -3 -5 -40 -10 -83 -17 -132 -22 -137 -36 -43 -19 130 -19 130 16 130 17 0 30 -2 30 -4z"/>
 </g>
<g id="layer106" fill="#e53123" stroke="none">
 <path d="M1872 2977 c-25 -26 -28 -73 -12 -196 8 -61 7 -77 -5 -91 -8 -8 -12 -25 -9 -36 6 -22 -8 -57 -56 -143 -21 -38 -27 -58 -21 -70 18 -34 -19 -86 -99 -139 -174 -116 -358 -308 -493 -514 -42 -66 -55 -78 -77 -78 -25 0 -33 -12 -100 -145 -68 -135 -74 -150 -74 -208 1 -75 26 -167 54 -192 33 -30 25 -45 -23 -45 -53 0 -70 -13 -87 -67 -12 -38 -11 -48 10 -105 12 -35 44 -106 70 -158 25 -52 53 -111 60 -130 32 -81 76 -140 142 -189 52 -40 76 -51 105 -52 66 -1 155 -24 169 -44 8 -10 13 -33 13 -49 -1 -29 -2 -29 -9 7 -4 21 -11 42 -16 47 -11 11 -143 16 -204 8 -177 -24 -405 -97 -530 -168 -93 -53 -169 -115 -220 -181 l-32 -39 1286 0 1286 0 0 1500 0 1500 -517 0 -516 0 19 -22 19 -23 -26 23 c-33 29 -79 29 -107 -1z m145 -109 c-2 -13 -4 -3 -4 22 0 25 2 35 4 23 2 -13 2 -33 0 -45z m-10 -50 c-3 -8 -6 -5 -6 6 -1 11 2 17 5 13 3 -3 4 -12 1 -19z m-16 -45 c-12 -20 -14 -14 -5 12 4 9 9 14 11 11 3 -2 0 -13 -6 -23z m-14 -70 c-3 -10 -5 -2 -5 17 0 19 2 27 5 18 2 -10 2 -26 0 -35z m-10 -40 c-4 -3 -7 0 -7 7 0 7 3 10 7 7 3 -4 3 -10 0 -14z m-10 -35 c-3 -8 -6 -5 -6 6 -1 11 2 17 5 13 3 -3 4 -12 1 -19z m-10 -95 c-2 -16 -4 -5 -4 22 0 28 2 40 4 28 2 -13 2 -35 0 -50z m10 -50 c-4 -3 -7 0 -7 7 0 7 3 10 7 7 3 -4 3 -10 0 -14z m10 -70 c-3 -10 -5 -2 -5 17 0 19 2 27 5 18 2 -10 2 -26 0 -35z m-17 -43 c-6 -11 -13 -20 -16 -20 -2 0 0 9 6 20 6 11 13 20 16 20 2 0 0 -9 -6 -20z m-32 -50 c-7 -10 -14 -17 -17 -15 -4 4 18 35 25 35 2 0 -1 -9 -8 -20z m-21 -52 c-3 -8 -6 -5 -6 6 -1 11 2 17 5 13 3 -3 4 -12 1 -19z m-10 -60 c-3 -8 -6 -5 -6 6 -1 11 2 17 5 13 3 -3 4 -12 1 -19z m-10 -55 c-3 -10 -5 -4 -5 12 0 17 2 24 5 18 2 -7 2 -21 0 -30z m-10 -55 c-3 -8 -6 -5 -6 6 -1 11 2 17 5 13 3 -3 4 -12 1 -19z m-10 -45 c-4 -3 -7 0 -7 7 0 7 3 10 7 7 3 -4 3 -10 0 -14z m-17 -50 c-11 -17 -11 -17 -6 0 3 10 6 24 7 30 0 9 2 9 5 0 3 -7 0 -20 -6 -30z m-10 -27 c0 -3 -5 -8 -12 -12 -7 -4 -8 -3 -4 4 7 12 16 16 16 8z m-36 -56 c-10 -16 -20 -28 -22 -26 -4 5 28 56 35 56 2 0 -4 -13 -13 -30z m-41 -80 c-3 -12 -8 -19 -11 -16 -5 6 5 36 12 36 2 0 2 -9 -1 -20z m-16 -62 c-3 -7 -5 -2 -5 12 0 14 2 19 5 13 2 -7 2 -19 0 -25z m226 -5 c-7 -2 -19 -2 -25 0 -7 3 -2 5 12 5 14 0 19 -2 13 -5z m-60 -10 c-7 -2 -19 -2 -25 0 -7 3 -2 5 12 5 14 0 19 -2 13 -5z m114 1 c-3 -3 -12 -4 -19 -1 -8 3 -5 6 6 6 11 1 17 -2 13 -5z m52 -18 c15 -8 34 -23 42 -33 13 -17 13 -17 -6 -2 -11 9 -33 24 -50 32 -16 9 -26 16 -22 17 4 0 20 -6 36 -14z m-342 -53 c-3 -10 -5 -2 -5 17 0 19 2 27 5 18 2 -10 2 -26 0 -35z m93 43 c0 -3 -5 -8 -12 -12 -7 -4 -8 -3 -4 4 7 12 16 16 16 8z m-30 -19 c0 -2 -12 -14 -27 -28 l-28 -24 24 28 c23 25 31 32 31 24z m371 -54 c13 -16 12 -17 -3 -4 -10 7 -18 15 -18 17 0 8 8 3 21 -13z m-441 -43 c-5 -10 -10 -47 -11 -82 -1 -51 -2 -58 -9 -35 -10 33 7 150 21 141 5 -3 5 -13 -1 -24z m457 3 c-4 -3 -7 0 -7 7 0 7 3 10 7 7 3 -4 3 -10 0 -14z m10 -35 c-3 -8 -6 -5 -6 6 -1 11 2 17 5 13 3 -3 4 -12 1 -19z m10 -65 c-3 -10 -5 -2 -5 17 0 19 2 27 5 18 2 -10 2 -26 0 -35z m-510 -30 c-4 -3 -7 0 -7 7 0 7 3 10 7 7 3 -4 3 -10 0 -14z m500 -15 c-3 -8 -6 -5 -6 6 -1 11 2 17 5 13 3 -3 4 -12 1 -19z m-510 -20 c-3 -8 -6 -5 -6 6 -1 11 2 17 5 13 3 -3 4 -12 1 -19z m494 -21 c-10 -9 -11 -8 -5 6 3 10 9 15 12 12 3 -3 0 -11 -7 -18z m-486 -7 c3 -5 4 -10 1 -10 -3 0 -8 5 -11 10 -3 6 -4 10 -1 10 3 0 8 -4 11 -10z m468 -25 c-3 -9 -8 -14 -10 -11 -3 3 -2 9 2 15 9 16 15 13 8 -4z m-476 -17 c-3 -8 -6 -5 -6 6 -1 11 2 17 5 13 3 -3 4 -12 1 -19z m93 -3 c13 -14 21 -25 18 -25 -2 0 -15 11 -28 25 -13 14 -21 25 -18 25 2 0 15 -11 28 -25z m-103 -32 c-4 -3 -7 0 -7 7 0 7 3 10 7 7 3 -4 3 -10 0 -14z m453 13 c0 -2 -7 -7 -16 -10 -8 -3 -12 -2 -9 4 6 10 25 14 25 6z m-305 -16 c3 -5 4 -10 1 -10 -3 0 -8 5 -11 10 -3 6 -4 10 -1 10 3 0 8 -4 11 -10z m60 -31 c11 -16 1 -19 -13 -3 -7 8 -8 14 -3 14 5 0 13 -5 16 -11z m185 7 c0 -2 -7 -6 -15 -10 -8 -3 -15 -1 -15 4 0 6 7 10 15 10 8 0 15 -2 15 -4z m-413 -38 c-3 -8 -6 -5 -6 6 -1 11 2 17 5 13 3 -3 4 -12 1 -19z m380 -30 c-3 -7 -5 -2 -5 12 0 14 2 19 5 13 2 -7 2 -19 0 -25z m-390 -5 c-4 -3 -7 0 -7 7 0 7 3 10 7 7 3 -4 3 -10 0 -14z m-10 -30 c-4 -3 -7 0 -7 7 0 7 3 10 7 7 3 -4 3 -10 0 -14z m390 -15 c-3 -7 -5 -2 -5 12 0 14 2 19 5 13 2 -7 2 -19 0 -25z m-207 -38 c-6 -11 -13 -20 -16 -20 -2 0 0 9 6 20 6 11 13 20 16 20 2 0 0 -9 -6 -20z m197 3 c-4 -3 -7 0 -7 7 0 7 3 10 7 7 3 -4 3 -10 0 -14z m-400 -10 c-4 -3 -7 0 -7 7 0 7 3 10 7 7 3 -4 3 -10 0 -14z m378 -42 c-21 -43 -29 -39 -8 4 9 19 18 33 21 31 2 -2 -4 -18 -13 -35z m-395 5 c0 -2 -8 -10 -17 -17 -16 -13 -17 -12 -4 4 13 16 21 21 21 13z m187 -28 c-3 -8 -6 -5 -6 6 -1 11 2 17 5 13 3 -3 4 -12 1 -19z m-10 -40 c-3 -8 -6 -5 -6 6 -1 11 2 17 5 13 3 -3 4 -12 1 -19z m-200 -15 c-4 -3 -7 0 -7 7 0 7 3 10 7 7 3 -4 3 -10 0 -14z m380 -5 c-3 -8 -6 -5 -6 6 -1 11 2 17 5 13 3 -3 4 -12 1 -19z m-190 -15 c-4 -3 -7 0 -7 7 0 7 3 10 7 7 3 -4 3 -10 0 -14z m-167 -28 c0 -5 -5 -3 -10 5 -5 8 -10 20 -10 25 0 6 5 3 10 -5 5 -8 10 -19 10 -25z m347 -7 c-3 -7 -5 -2 -5 12 0 14 2 19 5 13 2 -7 2 -19 0 -25z m-190 -20 c-3 -8 -6 -5 -6 6 -1 11 2 17 5 13 3 -3 4 -12 1 -19z m-140 -25 c-4 -3 -7 0 -7 7 0 7 3 10 7 7 3 -4 3 -10 0 -14z m320 -10 c-4 -3 -7 0 -7 7 0 7 3 10 7 7 3 -4 3 -10 0 -14z m-190 -25 c-3 -7 -5 -2 -5 12 0 14 2 19 5 13 2 -7 2 -19 0 -25z m180 -10 c-3 -8 -6 -5 -6 6 -1 11 2 17 5 13 3 -3 4 -12 1 -19z m-276 -5 c13 -16 12 -17 -3 -4 -17 13 -22 21 -14 21 2 0 10 -8 17 -17z m86 -20 c-4 -3 -7 0 -7 7 0 7 3 10 7 7 3 -4 3 -10 0 -14z m-52 -3 c3 -5 4 -10 1 -10 -3 0 -8 5 -11 10 -3 6 -4 10 -1 10 3 0 8 -4 11 -10z m232 -122 c-3 -7 -5 -2 -5 12 0 14 2 19 5 13 2 -7 2 -19 0 -25z m-57 -141 c0 -2 -10 -12 -22 -23 l-23 -19 19 23 c18 21 26 27 26 19z m-120 -91 c0 -3 -5 -8 -12 -12 -7 -4 -8 -3 -4 4 7 12 16 16 16 8z m47 -398 c-3 -7 -5 -2 -5 12 0 14 2 19 5 13 2 -7 2 -19 0 -25z"/>
 <path d="M350 2505 l0 -295 74 0 73 0 37 118 c70 221 64 217 65 40 l1 -158 65 0 65 0 0 295 0 295 -74 0 -73 0 -23 -77 c-12 -43 -35 -118 -50 -168 l-28 -90 -1 168 -1 167 -65 0 -65 0 0 -295z"/>
 <path d="M770 2506 l0 -296 140 0 c161 0 193 10 216 65 28 67 10 169 -35 196 -19 13 -19 13 1 23 44 22 63 63 62 130 -1 70 -21 115 -67 150 -25 19 -45 21 -173 24 l-144 4 0 -296z m238 172 c15 -15 16 -92 2 -119 -8 -13 -21 -19 -45 -19 l-35 0 0 75 0 75 33 0 c18 0 38 -5 45 -12z m-10 -250 c16 -16 16 -90 0 -106 -7 -7 -25 -12 -40 -12 -28 0 -28 0 -28 65 0 65 0 65 28 65 15 0 33 -5 40 -12z"/>
 <path d="M1160 2783 c0 -10 25 -142 55 -293 30 -151 55 -276 55 -277 0 -2 45 -3 100 -3 55 0 100 1 100 3 0 2 25 126 55 277 30 151 55 282 55 292 0 16 -9 18 -74 18 l-73 0 -7 -37 c-3 -21 -6 -50 -6 -65 0 -27 -2 -28 -49 -28 l-50 0 -6 48 c-3 26 -7 54 -8 62 -2 11 -19 16 -75 18 -64 3 -72 1 -72 -15z m240 -222 c0 -20 -21 -167 -27 -191 -4 -18 -10 -1 -19 60 -20 135 -19 140 16 140 17 0 30 -4 30 -9z"/>
 </g>
<g id="layer107" fill="#0075c7" stroke="none">
 <path d="M1872 2977 c-25 -26 -28 -73 -12 -196 8 -61 7 -77 -5 -91 -8 -8 -12 -25 -9 -36 6 -22 -8 -57 -56 -143 -21 -38 -27 -58 -21 -70 18 -34 -19 -86 -99 -139 -174 -116 -358 -308 -493 -514 -42 -66 -55 -78 -77 -78 -25 0 -33 -12 -100 -145 -68 -135 -74 -150 -74 -208 1 -75 26 -167 54 -192 33 -30 25 -45 -23 -45 -53 0 -70 -13 -87 -67 -12 -38 -11 -48 10 -105 12 -35 44 -106 70 -158 25 -52 53 -111 60 -130 32 -81 76 -140 142 -189 52 -40 76 -51 105 -52 66 -1 155 -24 169 -44 8 -10 13 -33 13 -49 -1 -29 -2 -29 -9 7 -4 21 -11 42 -16 47 -11 11 -143 16 -204 8 -178 -24 -405 -97 -534 -170 -64 -36 -114 -75 -171 -132 l-80 -81 619 -3 c566 -2 621 -1 645 15 24 15 25 15 12 0 -13 -16 30 -17 643 -17 l656 0 0 73 0 73 -77 77 c-42 42 -80 77 -84 77 -4 0 -14 6 -21 13 -25 25 -164 106 -238 140 -165 74 -205 88 -425 144 -33 8 -108 23 -167 32 l-108 18 -15 -23 c-22 -34 -65 -72 -107 -96 -21 -12 -38 -25 -38 -30 0 -4 -15 -15 -32 -23 -27 -13 -30 -13 -13 -1 11 8 27 21 35 29 8 7 31 24 50 37 99 66 135 131 145 267 10 126 35 244 67 306 16 32 36 94 45 138 12 62 20 79 33 79 9 0 29 11 43 24 14 13 29 26 34 27 4 2 19 24 33 49 53 96 25 226 -61 286 -78 54 -143 65 -227 38 -179 -58 -221 -277 -74 -389 24 -19 53 -35 63 -35 11 0 19 -4 19 -9 0 -5 -25 -60 -55 -123 -42 -88 -59 -137 -76 -223 -12 -60 -25 -116 -28 -123 -5 -9 -19 -5 -52 16 -40 26 -49 40 -82 118 -43 103 -44 110 -17 132 26 21 115 301 101 315 -6 6 -4 24 4 48 17 47 32 123 49 254 14 99 18 112 91 238 19 33 36 92 56 193 23 116 34 153 59 189 33 49 35 63 18 146 -9 44 -9 70 1 116 6 32 15 76 20 98 4 22 16 64 26 93 22 67 16 134 -16 168 -30 32 -78 32 -107 1z m-230 -2526 c-11 -6 -3 -23 35 -70 26 -35 56 -77 66 -94 10 -18 12 -23 5 -13 -7 11 -22 30 -34 42 -12 12 -31 38 -43 58 -13 20 -30 40 -38 45 -18 10 -11 41 9 41 10 0 10 -2 0 -9z m115 -226 c0 -8 -4 -12 -9 -9 -5 3 -6 10 -3 15 9 13 12 11 12 -6z m10 -42 c-4 -3 -7 0 -7 7 0 7 3 10 7 7 3 -4 3 -10 0 -14z m10 -75 c-2 -13 -4 -3 -4 22 0 25 2 35 4 23 2 -13 2 -33 0 -45z m-7 -32 c0 -2 -8 -10 -17 -17 -16 -13 -17 -12 -4 4 13 16 21 21 21 13z"/>
 <path d="M350 2505 l0 -295 74 0 73 0 37 118 c70 221 64 217 65 40 l1 -158 65 0 65 0 0 295 0 295 -74 0 -73 0 -23 -77 c-12 -43 -35 -118 -50 -168 l-28 -90 -1 168 -1 167 -65 0 -65 0 0 -295z"/>
 <path d="M770 2506 l0 -296 140 0 c161 0 193 10 216 65 28 67 10 169 -35 196 -19 13 -19 13 1 23 44 22 63 63 62 130 -1 70 -21 115 -67 150 -25 19 -45 21 -173 24 l-144 4 0 -296z m238 172 c15 -15 16 -92 2 -119 -8 -13 -21 -19 -45 -19 l-35 0 0 75 0 75 33 0 c18 0 38 -5 45 -12z m-10 -250 c16 -16 16 -90 0 -106 -7 -7 -25 -12 -40 -12 -28 0 -28 0 -28 65 0 65 0 65 28 65 15 0 33 -5 40 -12z"/>
 <path d="M1160 2783 c0 -10 25 -142 55 -293 30 -151 55 -276 55 -277 0 -2 45 -3 100 -3 55 0 100 1 100 3 0 2 25 126 55 277 30 151 55 282 55 292 0 16 -9 18 -74 18 l-73 0 -7 -37 c-3 -21 -6 -50 -6 -65 0 -27 -2 -28 -49 -28 l-50 0 -6 48 c-3 26 -7 54 -8 62 -2 11 -19 16 -75 18 -64 3 -72 1 -72 -15z m240 -222 c0 -20 -21 -167 -27 -191 -4 -18 -10 -1 -19 60 -20 135 -19 140 16 140 17 0 30 -4 30 -9z"/>
 </g>
<g id="layer108" fill="#ef4331" stroke="none">
 <path d="M1871 2974 c-24 -31 -25 -54 -10 -176 9 -68 9 -91 0 -102 -7 -8 -14 -33 -15 -54 -2 -23 -19 -68 -40 -105 -22 -41 -36 -77 -34 -95 4 -54 -20 -87 -105 -145 -183 -124 -357 -307 -491 -514 -35 -54 -53 -73 -69 -73 -12 0 -26 -4 -32 -8 -10 -7 -101 -185 -130 -256 -32 -77 -13 -222 37 -278 35 -40 35 -48 -1 -48 -72 0 -89 -10 -106 -59 -14 -44 -14 -51 3 -102 11 -29 36 -88 57 -129 21 -41 52 -109 70 -150 45 -108 76 -152 144 -204 56 -43 65 -47 161 -60 56 -8 107 -19 112 -24 21 -21 28 -99 12 -132 -18 -35 -11 -80 11 -80 10 0 15 -11 16 -32 1 -95 54 -148 148 -148 37 0 65 6 81 17 24 16 24 16 11 0 -13 -16 26 -17 643 -17 l656 0 0 73 0 73 -77 77 c-42 42 -80 77 -84 77 -4 0 -14 6 -21 13 -25 25 -164 106 -238 140 -165 74 -205 88 -425 144 -33 8 -108 23 -167 32 l-108 18 -15 -23 c-22 -34 -65 -72 -107 -96 -21 -12 -38 -25 -38 -30 0 -4 -15 -15 -32 -23 -27 -13 -30 -13 -13 -1 11 8 27 21 35 29 8 7 31 24 50 37 99 66 135 131 145 267 10 126 35 244 67 306 16 32 36 94 45 138 12 62 20 79 33 79 9 0 29 11 43 24 14 13 29 26 34 27 4 2 19 24 33 49 53 96 25 226 -61 286 -78 54 -143 65 -227 38 -179 -58 -221 -277 -74 -389 24 -19 53 -35 63 -35 11 0 19 -4 19 -9 0 -5 -25 -60 -55 -123 -42 -88 -59 -137 -76 -223 -12 -60 -25 -116 -28 -123 -5 -9 -19 -5 -52 16 -40 26 -49 40 -82 118 -43 103 -44 110 -17 132 26 21 115 301 101 315 -6 6 -4 24 4 48 17 47 32 123 49 254 14 99 18 112 91 238 19 33 36 92 56 193 23 116 34 153 59 189 33 49 35 63 18 146 -9 44 -9 70 1 116 6 32 15 76 20 98 4 22 16 64 26 93 34 102 1 192 -71 192 -23 0 -38 -8 -53 -26z m-229 -2523 c-11 -6 -3 -23 35 -70 26 -35 56 -77 66 -94 10 -18 12 -23 5 -13 -7 11 -22 30 -34 42 -12 12 -31 38 -43 58 -13 20 -30 40 -38 45 -18 10 -11 41 9 41 10 0 10 -2 0 -9z m115 -226 c0 -8 -4 -12 -9 -9 -5 3 -6 10 -3 15 9 13 12 11 12 -6z m10 -42 c-4 -3 -7 0 -7 7 0 7 3 10 7 7 3 -4 3 -10 0 -14z m10 -75 c-2 -13 -4 -3 -4 22 0 25 2 35 4 23 2 -13 2 -33 0 -45z m-7 -32 c0 -2 -8 -10 -17 -17 -16 -13 -17 -12 -4 4 13 16 21 21 21 13z"/>
 <path d="M350 2505 l0 -295 74 0 73 0 49 160 49 161 3 -161 2 -160 65 0 65 0 0 295 0 296 -72 -3 -73 -3 -50 -168 -50 -168 -3 171 -2 170 -65 0 -65 0 0 -295z"/>
 <path d="M780 2506 l0 -296 131 0 c183 0 215 18 226 124 6 63 -15 121 -51 137 l-25 12 32 16 c42 21 57 53 57 126 0 74 -22 122 -70 150 -29 17 -57 21 -167 23 l-133 4 0 -296z m232 171 c11 -18 10 -95 -2 -118 -8 -13 -21 -19 -45 -19 l-35 0 0 81 0 81 37 -7 c21 -4 41 -12 45 -18z m-14 -249 c7 -7 12 -33 12 -59 0 -50 -9 -59 -56 -59 -23 0 -24 3 -24 65 0 65 0 65 28 65 15 0 33 -5 40 -12z"/>
 <path d="M1160 2788 c0 -7 25 -140 56 -295 l57 -283 97 0 97 0 57 283 c31 155 56 288 56 295 0 8 -22 12 -74 12 l-74 0 -7 -65 -7 -65 -48 0 c-53 0 -60 8 -60 65 0 61 -5 65 -81 65 -49 0 -69 -4 -69 -12z m230 -325 c-7 -59 -15 -112 -18 -118 -4 -5 -13 42 -22 105 l-16 115 31 5 c16 3 32 5 34 4 1 -2 -2 -51 -9 -111z"/>
 </g>
<g id="layer109" fill="#ffffff" stroke="none">
 <path d="M1871 2974 c-24 -31 -25 -54 -10 -176 9 -68 9 -91 0 -102 -7 -8 -14 -33 -15 -54 -2 -23 -19 -68 -40 -105 -22 -41 -36 -77 -34 -95 4 -54 -20 -87 -105 -145 -183 -124 -357 -307 -491 -514 -35 -54 -53 -73 -69 -73 -12 0 -26 -4 -32 -8 -10 -7 -101 -185 -130 -256 -32 -77 -13 -222 37 -278 35 -40 35 -48 -1 -48 -72 0 -89 -10 -106 -59 -14 -44 -14 -51 3 -102 11 -29 36 -88 57 -129 21 -41 52 -109 70 -150 45 -108 76 -152 144 -204 56 -43 65 -47 161 -60 56 -8 107 -19 112 -24 21 -21 28 -99 12 -132 -18 -35 -11 -80 11 -80 10 0 15 -11 16 -32 1 -92 55 -148 141 -148 59 0 94 17 137 65 35 40 39 75 16 131 -8 19 -12 41 -8 49 6 16 -12 47 -49 89 -49 54 -78 94 -78 109 0 8 12 19 28 25 15 5 41 21 57 35 17 14 53 41 80 60 75 51 105 116 115 249 11 137 33 235 70 309 17 33 35 86 41 117 14 78 19 92 32 92 27 0 90 57 114 104 49 97 28 207 -52 274 -44 36 -95 52 -164 52 -163 0 -277 -164 -212 -306 21 -47 94 -113 134 -121 15 -3 27 -7 27 -9 0 -1 -26 -56 -58 -121 -48 -97 -62 -139 -82 -241 -13 -67 -29 -122 -34 -122 -5 0 -28 11 -51 25 -38 22 -46 35 -84 124 -22 55 -41 102 -41 106 0 3 11 16 26 28 18 16 35 56 65 152 22 72 38 140 36 153 -2 12 4 53 14 90 11 37 26 120 34 184 15 120 21 138 89 260 31 56 42 92 63 205 19 109 30 147 52 178 40 58 42 69 29 145 -12 69 -11 84 21 235 4 22 16 66 26 99 20 70 15 110 -22 148 -35 36 -74 37 -102 2z"/>
 <path d="M350 2505 l0 -295 74 0 73 0 49 160 49 161 3 -161 2 -160 65 0 65 0 0 295 0 296 -72 -3 -73 -3 -50 -168 -50 -168 -3 171 -2 170 -65 0 -65 0 0 -295z"/>
 <path d="M780 2506 l0 -296 131 0 c183 0 215 18 226 124 6 63 -15 121 -51 137 l-25 12 32 16 c42 21 57 53 57 126 0 74 -22 122 -70 150 -29 17 -57 21 -167 23 l-133 4 0 -296z m232 171 c11 -18 10 -95 -2 -118 -8 -13 -21 -19 -45 -19 l-35 0 0 81 0 81 37 -7 c21 -4 41 -12 45 -18z m-14 -249 c7 -7 12 -33 12 -59 0 -50 -9 -59 -56 -59 -23 0 -24 3 -24 65 0 65 0 65 28 65 15 0 33 -5 40 -12z"/>
 <path d="M1160 2788 c0 -7 25 -140 56 -295 l57 -283 97 0 97 0 57 283 c31 155 56 288 56 295 0 8 -22 12 -74 12 l-74 0 -7 -65 -7 -65 -48 0 c-53 0 -60 8 -60 65 0 61 -5 65 -81 65 -49 0 -69 -4 -69 -12z m230 -325 c-7 -59 -15 -112 -18 -118 -4 -5 -13 42 -22 105 l-16 115 31 5 c16 3 32 5 34 4 1 -2 -2 -51 -9 -111z"/>
 </g>

</svg>